<svg width="136" height="52" viewBox="0 0 136 52" fill="none" xmlns="http://www.w3.org/2000/svg">
<path d="M90.7465 18.967L97.2913 28.4055L90.9112 38.2817H97.3242L100.426 32.921L104.12 38.2817H110.763L104.109 28.7115L110.577 18.9972H104.186L101.072 24.292L97.3452 18.9643L90.7465 18.967Z" fill="#FF0513"/>
<path d="M10.2928 38.2418C8.704 38.2418 7.27636 37.9655 6.00991 37.4128C4.76648 36.8372 3.78785 36.0543 3.07403 35.0641C2.36021 34.051 1.99179 32.8881 1.96876 31.5756H5.31911C5.43424 32.7039 5.89477 33.6595 6.7007 34.4424C7.52965 35.2023 8.72703 35.5822 10.2928 35.5822C11.7895 35.5822 12.9639 35.2138 13.8159 34.477C14.6909 33.7171 15.1284 32.75 15.1284 31.5756C15.1284 30.6546 14.8751 29.9062 14.3685 29.3305C13.8619 28.7549 13.2287 28.3174 12.4688 28.018C11.709 27.7187 10.6843 27.3963 9.39479 27.0509C7.80597 26.6364 6.528 26.222 5.56089 25.8075C4.6168 25.393 3.79937 24.7483 3.10857 23.8733C2.4408 22.9752 2.10692 21.7779 2.10692 20.2811C2.10692 18.9686 2.4408 17.8058 3.10857 16.7926C3.77634 15.7795 4.70891 14.9966 5.90629 14.4439C7.12669 13.8913 8.51979 13.615 10.0856 13.615C12.3422 13.615 14.1843 14.1791 15.6119 15.3074C17.0626 16.4357 17.88 17.9324 18.0643 19.7976H14.6103C14.4952 18.8765 14.0116 18.0706 13.1596 17.3798C12.3076 16.666 11.1793 16.3091 9.77473 16.3091C8.46222 16.3091 7.39149 16.6545 6.56254 17.3453C5.73359 18.013 5.31911 18.9571 5.31911 20.1775C5.31911 21.0525 5.56089 21.7663 6.04445 22.319C6.55103 22.8716 7.16123 23.2976 7.87505 23.597C8.6119 23.8733 9.63657 24.1956 10.9491 24.5641C12.5379 25.0016 13.8159 25.4391 14.783 25.8766C15.7501 26.291 16.579 26.9473 17.2698 27.8453C17.9606 28.7203 18.306 29.9177 18.306 31.4375C18.306 32.6118 17.9952 33.7171 17.3735 34.7533C16.7517 35.7895 15.8307 36.6299 14.6103 37.2747C13.3899 37.9194 11.9507 38.2418 10.2928 38.2418ZM33.5005 38L26.0745 29.6414V38H22.9314V12.4406H26.0745V27.4654L33.3624 19.0723H37.7489L28.8377 28.5016L37.7834 38H33.5005ZM39.5328 28.467C39.5328 26.5328 39.9243 24.8404 40.7072 23.3897C41.4901 21.916 42.5608 20.7762 43.9194 19.9703C45.301 19.1644 46.8322 18.7614 48.5131 18.7614C50.1711 18.7614 51.6102 19.1183 52.8306 19.8321C54.051 20.5459 54.9606 21.444 55.5592 22.5262V19.0723H58.7369V38H55.5592V34.477C54.9375 35.5822 54.005 36.5033 52.7615 37.2401C51.5411 37.9539 50.1135 38.3109 48.4786 38.3109C46.7977 38.3109 45.2779 37.8964 43.9194 37.0674C42.5608 36.2385 41.4901 35.0756 40.7072 33.5789C39.9243 32.0822 39.5328 30.3782 39.5328 28.467ZM55.5592 28.5016C55.5592 27.0739 55.2714 25.8305 54.6958 24.7713C54.1201 23.7121 53.3372 22.9062 52.3471 22.3535C51.3799 21.7779 50.3092 21.49 49.1349 21.49C47.9605 21.49 46.8898 21.7663 45.9227 22.319C44.9556 22.8716 44.1842 23.6775 43.6085 24.7368C43.0329 25.796 42.745 27.0394 42.745 28.467C42.745 29.9177 43.0329 31.1842 43.6085 32.2664C44.1842 33.3256 44.9556 34.1431 45.9227 34.7187C46.8898 35.2714 47.9605 35.5477 49.1349 35.5477C50.3092 35.5477 51.3799 35.2714 52.3471 34.7187C53.3372 34.1431 54.1201 33.3256 54.6958 32.2664C55.2714 31.1842 55.5592 29.9292 55.5592 28.5016ZM67.1916 22.5608C67.8133 21.4785 68.7343 20.5805 69.9547 19.8667C71.1982 19.1298 72.6373 18.7614 74.2722 18.7614C75.9531 18.7614 77.4729 19.1644 78.8314 19.9703C80.213 20.7762 81.2953 21.916 82.0782 23.3897C82.8611 24.8404 83.2525 26.5328 83.2525 28.467C83.2525 30.3782 82.8611 32.0822 82.0782 33.5789C81.2953 35.0756 80.213 36.2385 78.8314 37.0674C77.4729 37.8964 75.9531 38.3109 74.2722 38.3109C72.6603 38.3109 71.2327 37.9539 69.9893 37.2401C68.7689 36.5033 67.8363 35.5937 67.1916 34.5115V46.9803H64.0484V19.0723H67.1916V22.5608ZM80.0403 28.467C80.0403 27.0394 79.7525 25.796 79.1768 24.7368C78.6012 23.6775 77.8183 22.8716 76.8281 22.319C75.861 21.7663 74.7903 21.49 73.6159 21.49C72.4646 21.49 71.3939 21.7779 70.4038 22.3535C69.4366 22.9062 68.6537 23.7236 68.0551 24.8058C67.4794 25.8651 67.1916 27.097 67.1916 28.5016C67.1916 29.9292 67.4794 31.1842 68.0551 32.2664C68.6537 33.3256 69.4366 34.1431 70.4038 34.7187C71.3939 35.2714 72.4646 35.5477 73.6159 35.5477C74.7903 35.5477 75.861 35.2714 76.8281 34.7187C77.8183 34.1431 78.6012 33.3256 79.1768 32.2664C79.7525 31.1842 80.0403 29.9177 80.0403 28.467ZM113.84 28.467C113.84 26.5328 114.232 24.8404 115.015 23.3897C115.798 21.916 116.868 20.7762 118.227 19.9703C119.608 19.1644 121.151 18.7614 122.855 18.7614C124.329 18.7614 125.699 19.1068 126.965 19.7976C128.232 20.4654 129.199 21.3519 129.867 22.4571V12.4406H133.044V38H129.867V34.4424C129.245 35.5707 128.324 36.5033 127.104 37.2401C125.883 37.9539 124.456 38.3109 122.821 38.3109C121.14 38.3109 119.608 37.8964 118.227 37.0674C116.868 36.2385 115.798 35.0756 115.015 33.5789C114.232 32.0822 113.84 30.3782 113.84 28.467ZM129.867 28.5016C129.867 27.0739 129.579 25.8305 129.003 24.7713C128.428 23.7121 127.645 22.9062 126.655 22.3535C125.687 21.7779 124.617 21.49 123.442 21.49C122.268 21.49 121.197 21.7663 120.23 22.319C119.263 22.8716 118.492 23.6775 117.916 24.7368C117.34 25.796 117.053 27.0394 117.053 28.467C117.053 29.9177 117.34 31.1842 117.916 32.2664C118.492 33.3256 119.263 34.1431 120.23 34.7187C121.197 35.2714 122.268 35.5477 123.442 35.5477C124.617 35.5477 125.687 35.2714 126.655 34.7187C127.645 34.1431 128.428 33.3256 129.003 32.2664C129.579 31.1842 129.867 29.9292 129.867 28.5016Z" fill="white"/>
</svg>
