<svg xmlns="http://www.w3.org/2000/svg" viewBox="0 0 268.49 95.24"><g id="Capa_2" data-name="Capa 2"><g id="Capa_1-2" data-name="Capa 1"><path d="M154.54,90.37A178.69,178.69,0,0,1,11.69,63.64,27,27,0,0,1,4.61,26.36a26.55,26.55,0,0,1,37.05-7A125.63,125.63,0,0,0,147.8,36.68,124.52,124.52,0,0,0,197.32,9.2,26.58,26.58,0,0,1,235,11.27a26.91,26.91,0,0,1-2,37.87A177.13,177.13,0,0,1,162.6,88.25Q158.58,89.41,154.54,90.37Z" fill="#d4d4d4"/><path d="M92.84,17.34A14.57,14.57,0,0,0,78.29,31.89V58a3.15,3.15,0,0,0,6.29,0V43.88a14.55,14.55,0,1,0,8.26-26.54m0,22.81A8.24,8.24,0,0,1,84.58,32v-.06a8.26,8.26,0,1,1,8.26,8.26" fill="#a159f9"/><path d="M151.13,26.37c-8.46.13-14.31,6.4-14.23,14.23V51.84a3,3,0,1,0,5.93,0V40.6a8.31,8.31,0,1,1,16.61,0V51.84a3,3,0,1,0,5.92,0V40.6a14.17,14.17,0,0,0-14.23-14.23" fill="#3a0563"/><path d="M193.81,12.44a2.94,2.94,0,0,0-2.94,2.94V28.92a14.24,14.24,0,1,0,5.92,11.57V15.38a3,3,0,0,0-3-2.94m-2.94,28.05a8.28,8.28,0,1,1,0-.06Z" fill="#3a0563"/><path d="M234.13,12.56a3,3,0,0,0-3,2.93V51.9a3,3,0,1,0,5.92,0V15.49a2.93,2.93,0,0,0-2.93-2.93" fill="#3a0563"/><path d="M228.11,40.6c0-9.24-7.33-14.23-14.23-14.23A14.25,14.25,0,0,0,199.65,40.6a14,14,0,0,0,.26,2.69h26.4a2.93,2.93,0,0,0,1.8-2.69m-22-3a8.37,8.37,0,0,1,7.77-5.32,8.05,8.05,0,0,1,7.85,5.32Z" fill="#3a0563"/><path d="M224.14,48.39a3.35,3.35,0,0,0-2.09-1.72A2.58,2.58,0,0,0,220,47a10.67,10.67,0,0,1-6.08,1.79,8.16,8.16,0,0,1-6.77-3.62l-.05-.07h-6.84l.07.2A14.38,14.38,0,0,0,213.88,55h.28a13.81,13.81,0,0,0,8.52-2.46,3.25,3.25,0,0,0,1.46-4.13" fill="#a159f9"/><path d="M264.52,48.39a3.35,3.35,0,0,0-2.09-1.72,2.58,2.58,0,0,0-2.09.3,10.69,10.69,0,0,1-6.08,1.79,8.16,8.16,0,0,1-6.77-3.62l-.05-.07H240.6l.06.2A14.39,14.39,0,0,0,254.26,55h.28a13.81,13.81,0,0,0,8.52-2.46,3.26,3.26,0,0,0,1.46-4.13" fill="#a159f9"/><path d="M268.49,40.6c0-9.24-7.33-14.23-14.23-14.23A14.24,14.24,0,0,0,240,40.6a14,14,0,0,0,.26,2.69h26.4a2.93,2.93,0,0,0,1.8-2.69m-22-3a8.4,8.4,0,0,1,7.78-5.32,8.05,8.05,0,0,1,7.85,5.32Z" fill="#3a0563"/><path d="M139.51,2.51a7.91,7.91,0,0,0-12.32,9.86l-9.86,9.19a4.75,4.75,0,0,0-2.68-1,4.75,4.75,0,0,0-3.63,8A4.78,4.78,0,0,0,114.33,30a4.6,4.6,0,0,0,4.85-4.53,5,5,0,0,0-.37-2l10-9.35A7.91,7.91,0,0,0,139.51,2.51" fill="#a159f9"/><path d="M135.23,22.35a3.09,3.09,0,0,0-4.75,1.44c-1.89,5.26-7.21,20.8-7.21,20.8L120,35a3.25,3.25,0,0,0-4-2.09,3.19,3.19,0,0,0-2,4.21l5.74,14.46L119.12,53a20.72,20.72,0,0,1-1.21,2.48,3.12,3.12,0,0,1-1.15,1.14,3.86,3.86,0,0,1-1.76.33,4.22,4.22,0,0,1-.87-.1l-.25,0a2.12,2.12,0,0,0-.44,0,2.68,2.68,0,0,0-.61,5.29l.34.06a17.46,17.46,0,0,0,2.79.19,10.74,10.74,0,0,0,4.87-.93,7.48,7.48,0,0,0,2.92-2.69A27.2,27.2,0,0,0,126,53.89s8.1-22.15,10.31-27.95a3.08,3.08,0,0,0-1.05-3.59" fill="#3a0563"/></g></g></svg>