<svg xmlns="http://www.w3.org/2000/svg" viewBox="0 0 27.14 8.89"><g id="Capa_2" data-name="Capa 2"><g id="Capa_1-2" data-name="Capa 1"><path d="M2.08,2.47A2.08,2.08,0,0,0,0,4.55V8.28a.45.45,0,0,0,.9,0v-2A2.08,2.08,0,1,0,2.08,2.47m0,3.26A1.18,1.18,0,0,1,.9,4.56h0A1.18,1.18,0,1,1,2.08,5.73" fill="#a159f9"/><path d="M10.39,3.76a2,2,0,0,0-2,2V7.4a.43.43,0,0,0,.85,0V5.79a1.19,1.19,0,0,1,2.37,0V7.4a.43.43,0,0,0,.85,0V5.79a2,2,0,0,0-2-2" fill="#3a0563"/><path d="M16.48,1.78a.41.41,0,0,0-.41.41V4.13a2,2,0,1,0,.84,1.65V2.19a.42.42,0,0,0-.43-.41m-.41,4a1.19,1.19,0,1,1-1.19-1.19,1.19,1.19,0,0,1,1.19,1.19Z" fill="#3a0563"/><path d="M22.24,1.79a.42.42,0,0,0-.43.42v5.2a.43.43,0,0,0,.85,0V2.21a.42.42,0,0,0-.42-.42" fill="#3a0563"/><path d="M21.38,5.79a2,2,0,0,0-2-2,2,2,0,0,0-2,2,1.67,1.67,0,0,0,0,.39h3.76a.43.43,0,0,0,.26-.39m-3.14-.42a1.19,1.19,0,0,1,1.11-.76,1.15,1.15,0,0,1,1.12.76Z" fill="#3a0563"/><path d="M20.81,6.91a.48.48,0,0,0-.29-.25.38.38,0,0,0-.3,0,1.52,1.52,0,0,1-.87.26,1.16,1.16,0,0,1-1-.52h-1v0a2,2,0,0,0,1.94,1.39h0a1.92,1.92,0,0,0,1.21-.36.45.45,0,0,0,.21-.58" fill="#a159f9"/><path d="M26.58,6.91a.49.49,0,0,0-.3-.25.39.39,0,0,0-.3,0,1.52,1.52,0,0,1-.87.26,1.16,1.16,0,0,1-1-.52h-1v0a2.06,2.06,0,0,0,1.94,1.39h0a2,2,0,0,0,1.22-.36.47.47,0,0,0,.21-.58" fill="#a159f9"/><path d="M27.14,5.79a2,2,0,0,0-2-2,2,2,0,0,0-2,2,1.67,1.67,0,0,0,0,.39h3.76a.41.41,0,0,0,.26-.39M24,5.37a1.19,1.19,0,0,1,1.11-.76,1.15,1.15,0,0,1,1.12.76Z" fill="#3a0563"/><path d="M8.74.36A1.13,1.13,0,0,0,7,1.76L5.57,3.08a.62.62,0,0,0-.38-.14.71.71,0,0,0-.49.18.74.74,0,0,0-.22.47.73.73,0,0,0,.19.49.68.68,0,0,0,.47.21.72.72,0,0,0,.49-.18.67.67,0,0,0,.2-.47.58.58,0,0,0,0-.29L7.21,2A1.13,1.13,0,0,0,8.74.36" fill="#a159f9"/><path d="M8.13,3.19a.44.44,0,0,0-.68.21c-.27.75-1,3-1,3L6,5a.46.46,0,0,0-.57-.3.45.45,0,0,0-.29.6l.82,2.06-.08.21a2.69,2.69,0,0,1-.18.35.44.44,0,0,1-.16.17.57.57,0,0,1-.25,0H5a.38.38,0,0,0-.09.75H5a2.25,2.25,0,0,0,.4,0,1.48,1.48,0,0,0,.69-.14,1,1,0,0,0,.42-.38,3.41,3.41,0,0,0,.31-.68S8,4.53,8.28,3.7a.46.46,0,0,0-.15-.51" fill="#3a0563"/></g></g></svg>