<svg xmlns="http://www.w3.org/2000/svg" viewBox="0 0 321.17 47.83"><g id="Capa_2" data-name="Capa 2"><g id="Capa_1-2" data-name="Capa 1"><path d="M10.33,12.32A10.34,10.34,0,0,0,0,22.65V41.21a2.24,2.24,0,0,0,4.47,0v-10a10.33,10.33,0,1,0,5.86-18.84m0,16.19a5.85,5.85,0,0,1-5.86-5.82v0a5.86,5.86,0,1,1,5.86,5.86" fill="#fff"/><path d="M51.72,18.72a9.88,9.88,0,0,0-10.1,10.11v8a2.1,2.1,0,1,0,4.2,0v-8a5.9,5.9,0,0,1,11.8,0v8a2.11,2.11,0,1,0,4.21,0v-8A10.07,10.07,0,0,0,51.72,18.72" fill="#fff"/><path d="M82,8.84a2.09,2.09,0,0,0-2.09,2.08v9.62a10.11,10.11,0,1,0,4.21,8.21V10.92A2.1,2.1,0,0,0,82,8.84M79.94,28.75a5.9,5.9,0,1,1-5.9-5.9,5.9,5.9,0,0,1,5.9,5.9Z" fill="#fff"/><path d="M110.66,8.92A2.11,2.11,0,0,0,108.53,11V36.85a2.11,2.11,0,1,0,4.21,0V11a2.08,2.08,0,0,0-2.08-2.08" fill="#fff"/><path d="M106.39,28.83a9.9,9.9,0,0,0-10.11-10.1,10.11,10.11,0,0,0-9.92,12h18.75a2.09,2.09,0,0,0,1.28-1.91M90.76,26.71a6,6,0,0,1,5.52-3.78,5.7,5.7,0,0,1,5.57,3.78Z" fill="#fff"/><path d="M103.57,34.36a2.39,2.39,0,0,0-1.49-1.22,1.82,1.82,0,0,0-1.48.21,7.56,7.56,0,0,1-4.32,1.28,5.82,5.82,0,0,1-4.81-2.58l0,0H86.58l0,.13A10.21,10.21,0,0,0,96.28,39h.2a9.8,9.8,0,0,0,6-1.75,2.3,2.3,0,0,0,1-2.93" fill="#fff"/><path d="M132.24,34.36a2.4,2.4,0,0,0-1.48-1.22,1.84,1.84,0,0,0-1.49.21A7.54,7.54,0,0,1,125,34.63a5.82,5.82,0,0,1-4.81-2.58l0,0h-4.86l0,.13A10.21,10.21,0,0,0,125,39h.2a9.78,9.78,0,0,0,6-1.75,2.3,2.3,0,0,0,1-2.93" fill="#fff"/><path d="M135.06,28.83A9.9,9.9,0,0,0,125,18.73a10.11,10.11,0,0,0-9.92,12h18.75a2.09,2.09,0,0,0,1.28-1.91m-15.63-2.12A6,6,0,0,1,125,22.93a5.72,5.72,0,0,1,5.58,3.78Z" fill="#fff"/><path d="M43.47,1.79a5.62,5.62,0,0,0-8.75,7l-7,6.53a3.41,3.41,0,0,0-1.9-.7,3.37,3.37,0,0,0-2.58,5.69,3.37,3.37,0,0,0,5.53-3.64L35.88,10a5.62,5.62,0,0,0,7.59-8.24" fill="#fff"/><path d="M40.43,15.87a2.19,2.19,0,0,0-3.37,1c-1.34,3.74-5.12,14.77-5.12,14.77l-2.35-6.84a2.3,2.3,0,0,0-2.84-1.48,2.25,2.25,0,0,0-1.42,3l4.08,10.27-.42,1a12.62,12.62,0,0,1-.86,1.76,2.16,2.16,0,0,1-.81.81,2.7,2.7,0,0,1-1.25.24,3,3,0,0,1-.62-.08l-.18,0a1.63,1.63,0,0,0-.31,0,1.91,1.91,0,0,0-.44,3.76l.25,0a12.59,12.59,0,0,0,2,.14,7.66,7.66,0,0,0,3.46-.67,5.28,5.28,0,0,0,2.07-1.91,20,20,0,0,0,1.58-3.39s5.75-15.72,7.32-19.84a2.2,2.2,0,0,0-.75-2.55" fill="#fff"/><rect x="156.4" y="8.92" width="0.36" height="38.92" fill="#fff"/><path d="M183.19,20.72H179.1l-.78,2.13h-.95L180.64,14h1l3.26,8.86H184Zm-2.05-5.6L179.37,20h3.55Z" fill="#fff"/><path d="M190,15.74a3.31,3.31,0,0,1,3.34,3.59A3.33,3.33,0,0,1,190,23a3,3,0,0,1-2.79-1.64v4.85h-.88V15.84h.88v1.54A3,3,0,0,1,190,15.74Zm-.18.78a2.62,2.62,0,0,0-2.61,2.83,2.62,2.62,0,0,0,2.61,2.82,2.59,2.59,0,0,0,2.61-2.84A2.56,2.56,0,0,0,189.85,16.52Z" fill="#fff"/><path d="M195.92,22.85H195v-7h.9v1.25a2.41,2.41,0,0,1,2.4-1.38v.94h-.24c-1.17,0-2.16.52-2.16,2.28Z" fill="#fff"/><path d="M202.38,23a3.34,3.34,0,0,1-3.44-3.6,3.32,3.32,0,0,1,3.44-3.61A3.15,3.15,0,0,1,205.7,19a5.16,5.16,0,0,1,0,.7h-5.82a2.45,2.45,0,0,0,2.53,2.51,2.16,2.16,0,0,0,2.26-1.57h1A3.08,3.08,0,0,1,202.38,23Zm-2.53-4h4.93a2.29,2.29,0,0,0-2.44-2.45A2.42,2.42,0,0,0,199.85,19Z" fill="#fff"/><path d="M212.59,18.84a2.05,2.05,0,0,0-2.13-2.35c-1.31,0-2.22.83-2.22,2.53v3.83h-.9v-7h.9V17a2.57,2.57,0,0,1,2.39-1.32,2.72,2.72,0,0,1,2.85,3v4.11h-.89Z" fill="#fff"/><path d="M218.42,15.74a3,3,0,0,1,2.76,1.61v-4h.9v9.5h-.9V21.28A2.91,2.91,0,0,1,218.41,23a3.33,3.33,0,0,1-3.35-3.62A3.31,3.31,0,0,1,218.42,15.74Zm.16.78A2.56,2.56,0,0,0,216,19.33a2.61,2.61,0,1,0,5.21,0A2.61,2.61,0,0,0,218.58,16.52Z" fill="#fff"/><path d="M223.93,13.85a.64.64,0,0,1,.65-.66.65.65,0,0,1,.66.66.66.66,0,0,1-.66.67A.65.65,0,0,1,223.93,13.85Zm.2,2h.9v7h-.9Z" fill="#fff"/><path d="M231.16,16.58l-3.61,5.53h3.67v.74h-4.7v-.74l3.61-5.53h-3.54v-.74h4.57Z" fill="#fff"/><path d="M235.68,15.74a2.91,2.91,0,0,1,2.77,1.64V15.84h.9v7h-.9V21.3A2.94,2.94,0,0,1,235.67,23a3.33,3.33,0,0,1-3.34-3.62A3.31,3.31,0,0,1,235.68,15.74Zm.17.78a2.56,2.56,0,0,0-2.61,2.81,2.61,2.61,0,1,0,5.21,0A2.61,2.61,0,0,0,235.85,16.52Z" fill="#fff"/><path d="M242.36,15.84v8.67c0,1.13-.57,1.65-1.7,1.65H240v-.77h.49c.67,0,.94-.24.94-.92V15.84Zm-1.1-2a.65.65,0,0,1,.66-.66.63.63,0,0,1,.64.66.65.65,0,0,1-.64.67A.66.66,0,0,1,241.26,13.85Z" fill="#fff"/><path d="M247.44,23a3.34,3.34,0,0,1-3.44-3.6,3.32,3.32,0,0,1,3.44-3.61A3.14,3.14,0,0,1,250.75,19c0,.28,0,.46,0,.7h-5.82a2.45,2.45,0,0,0,2.53,2.51,2.17,2.17,0,0,0,2.26-1.57h1A3.08,3.08,0,0,1,247.44,23Zm-2.53-4h4.93a2.29,2.29,0,0,0-2.44-2.45A2.42,2.42,0,0,0,244.91,19Z" fill="#fff"/><path d="M259.59,15.74a3.31,3.31,0,0,1,3.34,3.59A3.33,3.33,0,0,1,259.59,23a3,3,0,0,1-2.79-1.64v4.85h-.88V15.84h.88v1.54A3,3,0,0,1,259.59,15.74Zm-.18.78a2.62,2.62,0,0,0-2.61,2.83,2.62,2.62,0,0,0,2.61,2.82A2.59,2.59,0,0,0,262,19.33,2.56,2.56,0,0,0,259.41,16.52Z" fill="#fff"/><path d="M265.48,22.85h-.9v-7h.9v1.25a2.41,2.41,0,0,1,2.4-1.38v.94h-.24c-1.17,0-2.16.52-2.16,2.28Z" fill="#fff"/><path d="M272.08,15.74a2.92,2.92,0,0,1,2.78,1.64V15.84h.9v7h-.9V21.3A3,3,0,0,1,272.07,23a3.33,3.33,0,0,1-3.34-3.62A3.31,3.31,0,0,1,272.08,15.74Zm.17.78a2.56,2.56,0,0,0-2.61,2.81,2.62,2.62,0,1,0,5.22,0A2.62,2.62,0,0,0,272.25,16.52Zm1.4-3.56v.81L271,15.3v-.69Z" fill="#fff"/><path d="M280.8,15.74A3,3,0,0,1,284,18.13h-1a2.13,2.13,0,0,0-2.26-1.62c-1.37,0-2.49.93-2.49,2.84s1.12,2.85,2.49,2.85a2.13,2.13,0,0,0,2.26-1.63h1A3.08,3.08,0,0,1,280.8,23a3.31,3.31,0,0,1-3.4-3.6A3.31,3.31,0,0,1,280.8,15.74Z" fill="#fff"/><path d="M285.94,16.6h-1v-.76h1V14.08h.91v1.76h1.93v.76h-1.93V21c0,.86.3,1.13,1.1,1.13h.83v.77h-1c-1.22,0-1.87-.5-1.87-1.9Z" fill="#fff"/><path d="M290.05,13.85a.64.64,0,0,1,.65-.66.65.65,0,0,1,.66.66.66.66,0,0,1-.66.67A.65.65,0,0,1,290.05,13.85Zm.2,2h.9v7h-.9Z" fill="#fff"/><path d="M296.19,15.74a3,3,0,0,1,3.22,2.39h-1a2.14,2.14,0,0,0-2.26-1.62c-1.38,0-2.5.93-2.5,2.84s1.12,2.85,2.5,2.85a2.14,2.14,0,0,0,2.26-1.63h1A3.07,3.07,0,0,1,296.19,23a3.32,3.32,0,0,1-3.41-3.6A3.32,3.32,0,0,1,296.19,15.74Z" fill="#fff"/><path d="M304.08,23a3.37,3.37,0,0,1-3.48-3.6,3.51,3.51,0,1,1,7,0A3.41,3.41,0,0,1,304.08,23Zm0-.78a2.57,2.57,0,0,0,2.61-2.82,2.6,2.6,0,1,0-5.18,0A2.54,2.54,0,0,0,304.08,22.17Z" fill="#fff"/><path d="M180,30.6a2.9,2.9,0,0,1,2.52-1.21,3.61,3.61,0,0,1,2.77,1.24,4.48,4.48,0,0,1,1.14,3.16,4.45,4.45,0,0,1-1.14,3.15,3.61,3.61,0,0,1-2.75,1.23A2.92,2.92,0,0,1,180,36.82v5.34h-2.63V29.48H180Zm3.18,4.75a2.06,2.06,0,0,0,.57-1.56,2.09,2.09,0,0,0-.57-1.57,1.8,1.8,0,0,0-1.3-.56,1.85,1.85,0,0,0-1.31.55,2.06,2.06,0,0,0-.57,1.56,2.09,2.09,0,0,0,.57,1.57,1.81,1.81,0,0,0,2.61,0Z" fill="#fff"/><path d="M188.62,36.94a4.45,4.45,0,0,1-1.14-3.15,4.48,4.48,0,0,1,1.14-3.16,3.61,3.61,0,0,1,2.77-1.24,2.9,2.9,0,0,1,2.52,1.21V29.48h2.63v8.59h-2.63V36.82a3,3,0,0,1-2.55,1.35A3.6,3.6,0,0,1,188.62,36.94Zm4.72-1.6a2.09,2.09,0,0,0,.57-1.57,2.06,2.06,0,0,0-.57-1.56,1.85,1.85,0,0,0-1.31-.55,1.81,1.81,0,0,0-1.3.56,2.09,2.09,0,0,0-.57,1.57,2.06,2.06,0,0,0,.57,1.56,1.84,1.84,0,0,0,1.3.55A1.82,1.82,0,0,0,193.34,35.34Z" fill="#fff"/><path d="M201.48,29.48v1.6a2.77,2.77,0,0,1,2.46-1.69v2.67h-.64a1.88,1.88,0,0,0-1.36.44,2,2,0,0,0-.46,1.5v4.07h-2.63V29.48Z" fill="#fff"/><path d="M205.88,36.94a4.45,4.45,0,0,1-1.14-3.15,4.48,4.48,0,0,1,1.14-3.16,3.63,3.63,0,0,1,2.78-1.24,2.93,2.93,0,0,1,2.52,1.21V29.48h2.63v8.59h-2.63V36.82a3,3,0,0,1-2.56,1.35A3.61,3.61,0,0,1,205.88,36.94Zm4.73-1.6a2.09,2.09,0,0,0,.57-1.57,2.06,2.06,0,0,0-.57-1.56,1.87,1.87,0,0,0-1.31-.55,1.84,1.84,0,0,0-1.31.56,2.09,2.09,0,0,0-.57,1.57,2.06,2.06,0,0,0,.57,1.56,1.87,1.87,0,0,0,1.31.55A1.84,1.84,0,0,0,210.61,35.34Z" fill="#fff"/><path d="M220.73,38.07V26.68h2.63V38.07Z" fill="#fff"/><path d="M226.36,37a4.17,4.17,0,0,1-1.3-3.2,4.11,4.11,0,0,1,1.29-3.18,4.88,4.88,0,0,1,6.39,0A4.11,4.11,0,0,1,234,33.76a4.23,4.23,0,0,1-1.28,3.2,4.43,4.43,0,0,1-3.18,1.21A4.5,4.5,0,0,1,226.36,37Zm4.47-1.59a2.23,2.23,0,0,0,.52-1.6,2.16,2.16,0,0,0-.54-1.59,1.74,1.74,0,0,0-1.27-.55,1.71,1.71,0,0,0-1.27.55,2.16,2.16,0,0,0-.54,1.59,2.2,2.2,0,0,0,.55,1.6,1.76,1.76,0,0,0,1.29.56A1.68,1.68,0,0,0,230.83,35.37Z" fill="#fff"/><path d="M235.14,32.06a2.33,2.33,0,0,1,1-1.9,4,4,0,0,1,2.62-.77,4.4,4.4,0,0,1,2.67.75,2.58,2.58,0,0,1,1.08,2.06h-2.7a.78.78,0,0,0-.3-.61,1.64,1.64,0,0,0-.79-.16c-.69,0-1,.21-1,.63s.42.65,1.26.79a10.06,10.06,0,0,1,2.33.66,2,2,0,0,1,1.26,1.94,2.36,2.36,0,0,1-1,2,4.26,4.26,0,0,1-2.6.76,4.52,4.52,0,0,1-2.62-.71,2.62,2.62,0,0,1-1.14-2.12h2.69c.08.53.45.79,1.11.79a1.22,1.22,0,0,0,.76-.22.65.65,0,0,0,.3-.55c0-.23-.16-.41-.5-.54a6.74,6.74,0,0,0-1.2-.34c-.48-.09-.95-.21-1.43-.35a2.67,2.67,0,0,1-1.21-.72A1.82,1.82,0,0,1,235.14,32.06Z" fill="#fff"/><path d="M251.51,29.48v1.26a2.81,2.81,0,0,1,2.6-1.35,3.09,3.09,0,0,1,2.39,1,3.79,3.79,0,0,1,.92,2.68v5H254.8V33.4a1.73,1.73,0,0,0-.44-1.28,1.81,1.81,0,0,0-2.41,0,1.77,1.77,0,0,0-.44,1.28v4.67h-2.63V29.48Z" fill="#fff"/><path d="M263.3,38.17a4.17,4.17,0,0,1-3.08-1.2,4.37,4.37,0,0,1-1.2-3.21,4.31,4.31,0,0,1,1.19-3.19,4.21,4.21,0,0,1,3.09-1.18,4.41,4.41,0,0,1,3.14,1.17,4.23,4.23,0,0,1,1.24,3.24,5.31,5.31,0,0,1-.06.83h-5.91a1.5,1.5,0,0,0,1.44,1.3,2.33,2.33,0,0,0,.75-.1,1.85,1.85,0,0,0,.36-.2,2.69,2.69,0,0,0,.3-.33h2.85a3.79,3.79,0,0,1-1.48,2.08A4.4,4.4,0,0,1,263.3,38.17ZM264.42,32a1.68,1.68,0,0,0-1.09-.38,1.55,1.55,0,0,0-1.06.38,1.62,1.62,0,0,0-.54,1h3.21A1.39,1.39,0,0,0,264.42,32Z" fill="#fff"/><path d="M269.88,36.94a4.44,4.44,0,0,1-1.13-3.15,4.47,4.47,0,0,1,1.13-3.16,3.63,3.63,0,0,1,2.78-1.24,2.93,2.93,0,0,1,2.52,1.21V29.48h2.63V38a4.56,4.56,0,0,1-1,3,3.05,3.05,0,0,1-1.34.95,5.27,5.27,0,0,1-2,.34,5.34,5.34,0,0,1-3.12-.8,3.14,3.14,0,0,1-1.31-2.44h2.58c.25.64.87,1,1.85,1a1.64,1.64,0,0,0,1.2-.49,2.09,2.09,0,0,0,.48-1.53v-1.2a3,3,0,0,1-2.56,1.35A3.61,3.61,0,0,1,269.88,36.94Zm4.73-1.6a2.09,2.09,0,0,0,.57-1.57,2.06,2.06,0,0,0-.57-1.56,1.87,1.87,0,0,0-1.31-.55,1.84,1.84,0,0,0-1.31.56,2.09,2.09,0,0,0-.57,1.57,2.06,2.06,0,0,0,.57,1.56,1.87,1.87,0,0,0,1.31.55A1.84,1.84,0,0,0,274.61,35.34Z" fill="#fff"/><path d="M280.8,37a4.17,4.17,0,0,1-1.3-3.2,4.11,4.11,0,0,1,1.29-3.18A4.54,4.54,0,0,1,284,29.39a4.49,4.49,0,0,1,3.19,1.19,4.14,4.14,0,0,1,1.28,3.18A4.22,4.22,0,0,1,287.2,37,4.47,4.47,0,0,1,284,38.17,4.53,4.53,0,0,1,280.8,37Zm4.47-1.59a2.24,2.24,0,0,0,.53-1.6,2.16,2.16,0,0,0-.54-1.59,1.76,1.76,0,0,0-1.28-.55,1.73,1.73,0,0,0-1.27.55,2.19,2.19,0,0,0-.53,1.59,2.16,2.16,0,0,0,.55,1.6,1.74,1.74,0,0,0,1.28.56A1.68,1.68,0,0,0,285.27,35.37Z" fill="#fff"/><path d="M290.73,37a4.31,4.31,0,0,1-1.19-3.2,4.28,4.28,0,0,1,1.19-3.19,4.14,4.14,0,0,1,3.08-1.19,4.55,4.55,0,0,1,2.67.77,3.7,3.7,0,0,1,1.44,2.23h-2.85a1.22,1.22,0,0,0-1.2-.77,1.42,1.42,0,0,0-1.25.59,2.74,2.74,0,0,0-.41,1.56,2.69,2.69,0,0,0,.41,1.56,1.35,1.35,0,0,0,1.19.6,1.49,1.49,0,0,0,.77-.17,1.44,1.44,0,0,0,.49-.6h2.85a3.81,3.81,0,0,1-1.46,2.2,4.37,4.37,0,0,1-2.65.81A4.14,4.14,0,0,1,290.73,37Z" fill="#fff"/><path d="M301.8,28.51a1.48,1.48,0,0,1-1.09.45,1.55,1.55,0,1,1,0-3.1,1.56,1.56,0,0,1,1.09,2.65Zm-2.4,9.56V29.48H302v8.59Z" fill="#fff"/><path d="M305,37a4.2,4.2,0,0,1-1.3-3.2,4.08,4.08,0,0,1,1.3-3.18,4.88,4.88,0,0,1,6.39,0,4.11,4.11,0,0,1,1.29,3.18,4.23,4.23,0,0,1-1.28,3.2,4.45,4.45,0,0,1-3.19,1.21A4.53,4.53,0,0,1,305,37Zm4.47-1.59a2.24,2.24,0,0,0,.53-1.6,2.16,2.16,0,0,0-.54-1.59,1.76,1.76,0,0,0-1.28-.55,1.74,1.74,0,0,0-1.27.55,2.19,2.19,0,0,0-.53,1.59,2.16,2.16,0,0,0,.55,1.6,1.74,1.74,0,0,0,1.28.56A1.66,1.66,0,0,0,309.49,35.37Z" fill="#fff"/><path d="M313.8,32.06a2.36,2.36,0,0,1,1-1.9,4.08,4.08,0,0,1,2.63-.77,4.4,4.4,0,0,1,2.67.75,2.6,2.6,0,0,1,1.07,2.06h-2.69a.76.76,0,0,0-.31-.61,1.57,1.57,0,0,0-.78-.16c-.69,0-1,.21-1,.63s.42.65,1.26.79a10,10,0,0,1,2.32.66,2,2,0,0,1,.9.72,2,2,0,0,1,.36,1.22,2.33,2.33,0,0,1-1,2,4.22,4.22,0,0,1-2.6.76,4.48,4.48,0,0,1-2.61-.71,2.62,2.62,0,0,1-1.14-2.12h2.69c.07.53.44.79,1.11.79a1.22,1.22,0,0,0,.76-.22.65.65,0,0,0,.3-.55c0-.23-.17-.41-.5-.54a6.87,6.87,0,0,0-1.21-.34c-.47-.09-.94-.21-1.42-.35a2.7,2.7,0,0,1-1.22-.72A1.86,1.86,0,0,1,313.8,32.06Z" fill="#fff"/></g></g></svg>