<svg xmlns="http://www.w3.org/2000/svg" viewBox="0 0 213.12 31.74"><g id="Capa_2" data-name="Capa 2"><g id="Capa_1-2" data-name="Capa 1"><path d="M6.86,8.17A6.87,6.87,0,0,0,0,15V27.34a1.49,1.49,0,0,0,1.5,1.47A1.47,1.47,0,0,0,3,27.34V20.68A6.86,6.86,0,1,0,6.86,8.17m0,10.75A3.89,3.89,0,0,1,3,15.05v0a3.9,3.9,0,1,1,3.9,3.89" fill="#fff"/><path d="M34.32,12.43a6.54,6.54,0,0,0-6.7,6.7v5.3a1.4,1.4,0,1,0,2.79,0v-5.3a3.92,3.92,0,0,1,7.83,0v5.3a1.4,1.4,0,1,0,2.79,0v-5.3a6.67,6.67,0,0,0-6.71-6.7" fill="#fff"/><path d="M54.43,5.86a1.38,1.38,0,0,0-1.38,1.39v6.38a6.71,6.71,0,1,0,2.79,5.45V7.25a1.4,1.4,0,0,0-1.41-1.39M53.05,19.08a3.92,3.92,0,1,1-3.92-3.92,3.92,3.92,0,0,1,3.92,3.92Z" fill="#fff"/><path d="M73.43,5.92A1.4,1.4,0,0,0,72,7.3V24.45a1.4,1.4,0,1,0,2.79,0V7.3a1.38,1.38,0,0,0-1.38-1.38" fill="#fff"/><path d="M70.6,19.13a6.57,6.57,0,0,0-6.71-6.7,6.66,6.66,0,0,0-6.58,8H69.75a1.4,1.4,0,0,0,.85-1.27M60.23,17.72a3.94,3.94,0,0,1,3.66-2.5,3.8,3.8,0,0,1,3.7,2.5Z" fill="#fff"/><path d="M68.72,22.8a1.55,1.55,0,0,0-1-.81,1.26,1.26,0,0,0-1,.14,5,5,0,0,1-2.86.85,3.84,3.84,0,0,1-3.19-1.71l0,0H57.45l0,.09a6.79,6.79,0,0,0,6.41,4.58H64a6.51,6.51,0,0,0,4-1.16,1.54,1.54,0,0,0,.68-1.95" fill="#fff"/><path d="M87.75,22.8a1.61,1.61,0,0,0-1-.81,1.26,1.26,0,0,0-1,.14,5,5,0,0,1-2.86.85,3.87,3.87,0,0,1-3.2-1.71l0,0H76.48l0,.09a6.78,6.78,0,0,0,6.41,4.58h.13a6.5,6.5,0,0,0,4-1.16,1.53,1.53,0,0,0,.69-1.95" fill="#fff"/><path d="M89.62,19.13a6.56,6.56,0,0,0-6.7-6.7,6.71,6.71,0,0,0-6.59,8H88.77a1.38,1.38,0,0,0,.85-1.27M79.25,17.72a4,4,0,0,1,3.67-2.5,3.78,3.78,0,0,1,3.69,2.5Z" fill="#fff"/><path d="M28.85,1.18A3.73,3.73,0,0,0,23,5.83l-4.65,4.33a2.3,2.3,0,0,0-1.26-.47,2.34,2.34,0,0,0-1.6.62,2.29,2.29,0,0,0-.73,1.56,2.32,2.32,0,0,0,.62,1.6,2.24,2.24,0,0,0,1.56.69,2.29,2.29,0,0,0,1.6-.58A2.24,2.24,0,0,0,19.27,12a2.38,2.38,0,0,0-.18-1l4.72-4.41a3.73,3.73,0,0,0,5-5.47" fill="#fff"/><path d="M26.83,10.53a1.46,1.46,0,0,0-2.24.68c-.89,2.48-3.4,9.8-3.4,9.8l-1.56-4.54a1.51,1.51,0,0,0-1.88-1,1.5,1.5,0,0,0-.94,2l2.71,6.81-.28.68a10,10,0,0,1-.57,1.17,1.39,1.39,0,0,1-.54.54,1.88,1.88,0,0,1-.83.16,2.17,2.17,0,0,1-.41,0l-.12,0-.21,0a1.27,1.27,0,0,0-.29,2.5l.16,0a8.55,8.55,0,0,0,1.32.09A5,5,0,0,0,20,28.91a3.58,3.58,0,0,0,1.38-1.27,13.09,13.09,0,0,0,1-2.25S26.28,15,27.32,12.22a1.45,1.45,0,0,0-.49-1.69" fill="#fff"/><rect x="103.79" y="5.92" width="0.24" height="25.82" fill="#fff"/><path d="M121.56,13.75h-2.71l-.52,1.41h-.63l2.17-5.88h.67l2.17,5.88h-.63ZM120.2,10,119,13.25h2.35Z" fill="#fff"/><path d="M126.1,10.44a2.19,2.19,0,0,1,2.21,2.39,2.2,2.2,0,0,1-2.21,2.4,2,2,0,0,1-1.85-1.09v3.22h-.59V10.51h.59v1A2,2,0,0,1,126.1,10.44ZM126,11a1.74,1.74,0,0,0-1.73,1.88,1.74,1.74,0,1,0,3.46,0A1.7,1.7,0,0,0,126,11Z" fill="#fff"/><path d="M130,15.16h-.6V10.51h.6v.83a1.59,1.59,0,0,1,1.59-.91v.62h-.16c-.78,0-1.43.35-1.43,1.51Z" fill="#fff"/><path d="M134.29,15.23A2.21,2.21,0,0,1,132,12.84a2.21,2.21,0,0,1,2.28-2.4,2.09,2.09,0,0,1,2.2,2.16c0,.19,0,.31,0,.47h-3.86a1.62,1.62,0,0,0,1.67,1.66,1.44,1.44,0,0,0,1.5-1h.64A2.06,2.06,0,0,1,134.29,15.23Zm-1.67-2.65h3.27A1.53,1.53,0,0,0,134.27,11,1.6,1.6,0,0,0,132.62,12.58Z" fill="#fff"/><path d="M141.07,12.5a1.36,1.36,0,0,0-1.42-1.56c-.86,0-1.47.55-1.47,1.68v2.54h-.6V10.51h.6v.79a1.7,1.7,0,0,1,1.59-.87,1.8,1.8,0,0,1,1.89,2v2.72h-.59Z" fill="#fff"/><path d="M144.94,10.44a2,2,0,0,1,1.83,1.08V8.86h.6v6.3h-.6v-1a1.93,1.93,0,0,1-1.84,1.11,2.21,2.21,0,0,1-2.23-2.4A2.21,2.21,0,0,1,144.94,10.44Zm.1.52a1.7,1.7,0,0,0-1.73,1.87,1.74,1.74,0,1,0,3.46,0A1.74,1.74,0,0,0,145,11Z" fill="#fff"/><path d="M148.59,9.19a.42.42,0,0,1,.44-.43.41.41,0,0,1,.43.43.42.42,0,0,1-.43.44A.43.43,0,0,1,148.59,9.19Zm.14,1.32h.6v4.65h-.6Z" fill="#fff"/><path d="M153.39,11,151,14.67h2.43v.49h-3.12v-.49l2.4-3.67h-2.35v-.49h3Z" fill="#fff"/><path d="M156.39,10.44a1.93,1.93,0,0,1,1.84,1.09v-1h.6v4.65h-.6v-1a2,2,0,0,1-1.85,1.1,2.2,2.2,0,0,1-2.21-2.4A2.2,2.2,0,0,1,156.39,10.44Zm.11.52a1.7,1.7,0,0,0-1.73,1.87,1.74,1.74,0,1,0,3.46,0A1.74,1.74,0,0,0,156.5,11Z" fill="#fff"/><path d="M160.82,10.51v5.75a1,1,0,0,1-1.12,1.1h-.42v-.51h.32c.44,0,.62-.16.62-.61V10.51Zm-.72-1.32a.43.43,0,0,1,.86,0,.43.43,0,1,1-.86,0Z" fill="#fff"/><path d="M164.19,15.23a2.21,2.21,0,0,1-2.28-2.39,2.21,2.21,0,0,1,2.28-2.4,2.09,2.09,0,0,1,2.2,2.16c0,.19,0,.31,0,.47h-3.86a1.62,1.62,0,0,0,1.67,1.66,1.44,1.44,0,0,0,1.5-1h.63A2,2,0,0,1,164.19,15.23Zm-1.67-2.65h3.27A1.53,1.53,0,0,0,164.17,11,1.6,1.6,0,0,0,162.52,12.58Z" fill="#fff"/><path d="M172.26,10.44a2.2,2.2,0,0,1,2.21,2.39,2.21,2.21,0,0,1-2.21,2.4,2,2,0,0,1-1.85-1.09v3.22h-.59V10.51h.59v1A2,2,0,0,1,172.26,10.44Zm-.12.52a1.74,1.74,0,0,0-1.73,1.88,1.74,1.74,0,1,0,3.46,0A1.7,1.7,0,0,0,172.14,11Z" fill="#fff"/><path d="M176.17,15.16h-.6V10.51h.6v.83a1.59,1.59,0,0,1,1.59-.91v.62h-.16c-.78,0-1.43.35-1.43,1.51Z" fill="#fff"/><path d="M180.55,10.44a2,2,0,0,1,1.84,1.09v-1H183v4.65h-.59v-1a2,2,0,0,1-1.85,1.1,2.21,2.21,0,0,1-2.22-2.4A2.2,2.2,0,0,1,180.55,10.44Zm.11.52a1.7,1.7,0,0,0-1.73,1.87,1.74,1.74,0,1,0,3.46,0A1.74,1.74,0,0,0,180.66,11Zm.93-2.36v.54l-1.75,1V9.69Z" fill="#fff"/><path d="M186.33,10.44A2,2,0,0,1,188.47,12h-.64a1.41,1.41,0,0,0-1.5-1.08,1.66,1.66,0,0,0-1.65,1.89,1.66,1.66,0,0,0,1.65,1.89,1.41,1.41,0,0,0,1.5-1.08h.64a2,2,0,0,1-2.14,1.58,2.2,2.2,0,0,1-2.26-2.39A2.21,2.21,0,0,1,186.33,10.44Z" fill="#fff"/><path d="M189.74,11h-.65v-.5h.65V9.34h.6v1.17h1.28V11h-1.28V13.9c0,.57.2.75.74.75h.54v.51H191c-.81,0-1.24-.33-1.24-1.26Z" fill="#fff"/><path d="M192.47,9.19a.41.41,0,0,1,.43-.43.42.42,0,0,1,.44.43.43.43,0,0,1-.44.44A.42.42,0,0,1,192.47,9.19Zm.13,1.32h.6v4.65h-.6Z" fill="#fff"/><path d="M196.54,10.44A2,2,0,0,1,198.68,12H198a1.42,1.42,0,0,0-1.5-1.08,1.66,1.66,0,0,0-1.65,1.89,1.66,1.66,0,0,0,1.65,1.89,1.42,1.42,0,0,0,1.5-1.08h.64a2,2,0,0,1-2.14,1.58,2.2,2.2,0,0,1-2.26-2.39A2.21,2.21,0,0,1,196.54,10.44Z" fill="#fff"/><path d="M201.78,15.23a2.24,2.24,0,0,1-2.31-2.39,2.33,2.33,0,1,1,4.65,0A2.27,2.27,0,0,1,201.78,15.23Zm0-.52a1.7,1.7,0,0,0,1.73-1.87,1.72,1.72,0,1,0-3.43,0A1.68,1.68,0,0,0,201.78,14.71Z" fill="#fff"/><path d="M119.44,20.31a1.94,1.94,0,0,1,1.67-.81,2.38,2.38,0,0,1,1.84.82,3,3,0,0,1,.76,2.1,2.92,2.92,0,0,1-.76,2.09,2.37,2.37,0,0,1-1.82.82,1.94,1.94,0,0,1-1.69-.9V28H117.7V19.56h1.74Zm2.12,3.15a1.65,1.65,0,0,0,0-2.08,1.22,1.22,0,0,0-1.74,0,1.4,1.4,0,0,0-.38,1,1.38,1.38,0,0,0,.38,1,1.19,1.19,0,0,0,.87.37A1.25,1.25,0,0,0,121.56,23.46Z" fill="#fff"/><path d="M125.16,24.51a3,3,0,0,1-.75-2.09,3,3,0,0,1,.75-2.1A2.4,2.4,0,0,1,127,19.5a1.92,1.92,0,0,1,1.67.81v-.75h1.75v5.7h-1.75v-.83a2,2,0,0,1-1.69.9A2.37,2.37,0,0,1,125.16,24.51Zm3.14-1.06a1.38,1.38,0,0,0,.37-1,1.39,1.39,0,0,0-.37-1,1.25,1.25,0,0,0-.87-.36,1.19,1.19,0,0,0-.87.37,1.61,1.61,0,0,0,0,2.08,1.22,1.22,0,0,0,1.74,0Z" fill="#fff"/><path d="M133.7,19.56v1.06a1.83,1.83,0,0,1,1.63-1.12v1.78h-.43a1.26,1.26,0,0,0-.9.28,1.36,1.36,0,0,0-.3,1v2.7H132v-5.7Z" fill="#fff"/><path d="M136.62,24.51a2.92,2.92,0,0,1-.76-2.09,3,3,0,0,1,.76-2.1,2.4,2.4,0,0,1,1.84-.82,1.93,1.93,0,0,1,1.67.81v-.75h1.75v5.7h-1.75v-.83a2,2,0,0,1-1.69.9A2.37,2.37,0,0,1,136.62,24.51Zm3.13-1.06a1.38,1.38,0,0,0,.38-1,1.4,1.4,0,0,0-.38-1,1.22,1.22,0,0,0-.87-.36,1.18,1.18,0,0,0-.86.37,1.61,1.61,0,0,0,0,2.08,1.21,1.21,0,0,0,.86.36A1.19,1.19,0,0,0,139.75,23.45Z" fill="#fff"/><path d="M146.47,25.26V17.7h1.75v7.56Z" fill="#fff"/><path d="M150.2,24.52a2.76,2.76,0,0,1-.86-2.12,2.74,2.74,0,0,1,.86-2.11,3.24,3.24,0,0,1,4.24,0,2.74,2.74,0,0,1,.85,2.11,2.79,2.79,0,0,1-.84,2.12,3,3,0,0,1-2.12.81A3,3,0,0,1,150.2,24.52Zm3-1.05a1.49,1.49,0,0,0,.35-1.06,1.46,1.46,0,0,0-.36-1.06,1.16,1.16,0,0,0-.85-.36,1.14,1.14,0,0,0-.84.36,1.5,1.5,0,0,0-.35,1.06,1.45,1.45,0,0,0,.36,1.06,1.15,1.15,0,0,0,.85.37A1.09,1.09,0,0,0,153.17,23.47Z" fill="#fff"/><path d="M156,21.28a1.55,1.55,0,0,1,.64-1.27,2.73,2.73,0,0,1,1.74-.51,2.93,2.93,0,0,1,1.78.5,1.75,1.75,0,0,1,.71,1.37h-1.79a.5.5,0,0,0-.2-.4.94.94,0,0,0-.52-.11q-.69,0-.69.42c0,.25.28.42.84.52a6.31,6.31,0,0,1,1.54.44,1.3,1.3,0,0,1,.6.47,1.34,1.34,0,0,1,.24.81,1.58,1.58,0,0,1-.68,1.31,2.88,2.88,0,0,1-1.73.5,3.09,3.09,0,0,1-1.74-.47,1.76,1.76,0,0,1-.75-1.41h1.79c0,.35.29.52.73.52a.83.83,0,0,0,.51-.14.45.45,0,0,0,.2-.37c0-.15-.11-.27-.34-.36a5,5,0,0,0-.8-.22c-.31-.06-.63-.14-.94-.23a1.76,1.76,0,0,1-.81-.48A1.24,1.24,0,0,1,156,21.28Z" fill="#fff"/><path d="M166.89,19.56v.84a1.88,1.88,0,0,1,1.73-.9,2.1,2.1,0,0,1,1.59.65,2.54,2.54,0,0,1,.61,1.78v3.33h-1.74V22.17a1.21,1.21,0,0,0-.29-.86,1.07,1.07,0,0,0-.8-.3,1.06,1.06,0,0,0-.8.3,1.17,1.17,0,0,0-.3.86v3.09h-1.74v-5.7Z" fill="#fff"/><path d="M174.72,25.33a2.79,2.79,0,0,1-2.05-.8,2.89,2.89,0,0,1-.79-2.13,2.83,2.83,0,0,1,.79-2.11,2.77,2.77,0,0,1,2.05-.79,2.92,2.92,0,0,1,2.08.78,2.79,2.79,0,0,1,.83,2.15,4.58,4.58,0,0,1,0,.55h-3.93a1,1,0,0,0,.34.62,1,1,0,0,0,.62.24,1.21,1.21,0,0,0,.49-.07.66.66,0,0,0,.24-.13,1.13,1.13,0,0,0,.2-.22h1.89a2.48,2.48,0,0,1-1,1.38A2.85,2.85,0,0,1,174.72,25.33Zm.74-4.09a1.07,1.07,0,0,0-.72-.25,1,1,0,0,0-.71.25,1.11,1.11,0,0,0-.36.65h2.14A.92.92,0,0,0,175.46,21.24Z" fill="#fff"/><path d="M179.09,24.51a2.92,2.92,0,0,1-.76-2.09,3,3,0,0,1,.76-2.1,2.4,2.4,0,0,1,1.84-.82,1.93,1.93,0,0,1,1.67.81v-.75h1.75v5.67a3,3,0,0,1-.66,2,2.11,2.11,0,0,1-.89.63,3.56,3.56,0,0,1-1.31.23,3.64,3.64,0,0,1-2.08-.53,2.09,2.09,0,0,1-.86-1.63h1.71c.16.43.57.65,1.23.65a1,1,0,0,0,.79-.33,1.39,1.39,0,0,0,.32-1v-.8a2,2,0,0,1-1.7.9A2.36,2.36,0,0,1,179.09,24.51Zm3.13-1.06a1.38,1.38,0,0,0,.38-1,1.4,1.4,0,0,0-.38-1,1.22,1.22,0,0,0-.87-.36,1.18,1.18,0,0,0-.86.37,1.61,1.61,0,0,0,0,2.08,1.21,1.21,0,0,0,.86.36A1.19,1.19,0,0,0,182.22,23.45Z" fill="#fff"/><path d="M186.33,24.52a2.76,2.76,0,0,1-.86-2.12,2.71,2.71,0,0,1,.86-2.11,3.24,3.24,0,0,1,4.24,0,2.74,2.74,0,0,1,.85,2.11,2.76,2.76,0,0,1-.85,2.12,2.93,2.93,0,0,1-2.11.81A3,3,0,0,1,186.33,24.52Zm3-1.05a1.49,1.49,0,0,0,.35-1.06,1.46,1.46,0,0,0-.36-1.06,1.16,1.16,0,0,0-.85-.36,1.12,1.12,0,0,0-.84.36,1.76,1.76,0,0,0,0,2.12,1.13,1.13,0,0,0,.85.37A1.09,1.09,0,0,0,189.3,23.47Z" fill="#fff"/><path d="M192.92,24.53a2.85,2.85,0,0,1-.79-2.12,2.87,2.87,0,0,1,.79-2.12A2.77,2.77,0,0,1,195,19.5a2.91,2.91,0,0,1,1.76.52,2.37,2.37,0,0,1,1,1.47H195.8A.83.83,0,0,0,195,21a.94.94,0,0,0-.83.39,2.14,2.14,0,0,0,0,2.08.91.91,0,0,0,.8.39,1.07,1.07,0,0,0,.51-.11,1,1,0,0,0,.32-.4h1.89a2.51,2.51,0,0,1-1,1.46,2.87,2.87,0,0,1-1.75.54A2.73,2.73,0,0,1,192.92,24.53Z" fill="#fff"/><path d="M200.27,18.92a1,1,0,0,1-.73.29.94.94,0,0,1-.72-.29,1,1,0,0,1,0-1.46,1,1,0,0,1,.72-.3,1,1,0,0,1,.73.3,1.06,1.06,0,0,1,0,1.46Zm-1.6,6.34v-5.7h1.75v5.7Z" fill="#fff"/><path d="M202.4,24.52a2.76,2.76,0,0,1-.86-2.12,2.74,2.74,0,0,1,.86-2.11,3.24,3.24,0,0,1,4.24,0,2.74,2.74,0,0,1,.85,2.11,2.79,2.79,0,0,1-.84,2.12,3,3,0,0,1-2.12.81A3,3,0,0,1,202.4,24.52Zm3-1.05a1.49,1.49,0,0,0,.35-1.06,1.46,1.46,0,0,0-.36-1.06,1.17,1.17,0,0,0-1.69,0,1.5,1.5,0,0,0-.35,1.06,1.45,1.45,0,0,0,.36,1.06,1.15,1.15,0,0,0,.85.37A1.09,1.09,0,0,0,205.37,23.47Z" fill="#fff"/><path d="M208.23,21.28a1.55,1.55,0,0,1,.64-1.27,2.73,2.73,0,0,1,1.74-.51,2.93,2.93,0,0,1,1.78.5,1.72,1.72,0,0,1,.71,1.37h-1.79a.47.47,0,0,0-.2-.4.94.94,0,0,0-.52-.11q-.69,0-.69.42c0,.25.28.42.84.52a6.31,6.31,0,0,1,1.54.44,1.3,1.3,0,0,1,.6.47,1.34,1.34,0,0,1,.24.81,1.58,1.58,0,0,1-.68,1.31,2.88,2.88,0,0,1-1.73.5,3,3,0,0,1-1.73-.47,1.74,1.74,0,0,1-.76-1.41H210c0,.35.29.52.73.52a.83.83,0,0,0,.51-.14.45.45,0,0,0,.2-.37c0-.15-.11-.27-.34-.36a5,5,0,0,0-.8-.22c-.31-.06-.62-.14-.94-.23a1.76,1.76,0,0,1-.81-.48A1.24,1.24,0,0,1,208.23,21.28Z" fill="#fff"/></g></g></svg>