<svg xmlns="http://www.w3.org/2000/svg" viewBox="0 0 162.73 53.29"><g id="Capa_2" data-name="Capa 2"><g id="Capa_1-2" data-name="Capa 1"><path d="M12.45,14.84A12.46,12.46,0,0,0,0,27.29V49.65a2.69,2.69,0,0,0,5.38,0V37.54a12.45,12.45,0,1,0,7.07-22.7Zm0,19.51a7.05,7.05,0,0,1-7.07-7v0a7.07,7.07,0,1,1,7.07,7.06Z" fill="#fff"/><path d="M62.32,22.56c-7.24.11-12.25,5.48-12.17,12.18v9.61a2.53,2.53,0,1,0,5.06,0V34.74a7.11,7.11,0,0,1,14.22,0v9.61a2.54,2.54,0,1,0,5.07,0V34.74A12.13,12.13,0,0,0,62.32,22.56Z" fill="#fff"/><path d="M98.83,10.65a2.51,2.51,0,0,0-2.51,2.51V24.74a12.19,12.19,0,1,0,5.07,9.9V13.16A2.54,2.54,0,0,0,98.83,10.65Zm-2.51,24a7.11,7.11,0,1,1-7.11-7.11,7.12,7.12,0,0,1,7.11,7.11Z" fill="#fff"/><path d="M133.33,10.74a2.54,2.54,0,0,0-2.56,2.51V44.4a2.54,2.54,0,1,0,5.07,0V13.25A2.52,2.52,0,0,0,133.33,10.74Z" fill="#fff"/><path d="M128.18,34.74A11.92,11.92,0,0,0,116,22.56a12.19,12.19,0,0,0-12.18,12.18,12.54,12.54,0,0,0,.22,2.3h22.59A2.5,2.5,0,0,0,128.18,34.74Zm-18.83-2.56A7.18,7.18,0,0,1,116,27.63a6.89,6.89,0,0,1,6.71,4.55Z" fill="#fff"/><path d="M124.78,41.4A2.87,2.87,0,0,0,123,39.93a2.19,2.19,0,0,0-1.79.26,9.14,9.14,0,0,1-5.2,1.53,7,7,0,0,1-5.8-3.1l0-.06h-5.85l.05.17A12.33,12.33,0,0,0,116,47h.23a11.77,11.77,0,0,0,7.29-2.11A2.77,2.77,0,0,0,124.78,41.4Z" fill="#fff"/><path d="M159.33,41.4a2.91,2.91,0,0,0-1.79-1.47,2.19,2.19,0,0,0-1.79.26,9.13,9.13,0,0,1-5.2,1.53,7,7,0,0,1-5.79-3.1l0-.06h-5.86l.06.17A12.31,12.31,0,0,0,150.55,47h.24a11.8,11.8,0,0,0,7.29-2.11A2.77,2.77,0,0,0,159.33,41.4Z" fill="#fff"/><path d="M162.73,34.74a11.93,11.93,0,0,0-12.18-12.18,12.19,12.19,0,0,0-12.17,12.18,12.54,12.54,0,0,0,.22,2.3h22.59A2.52,2.52,0,0,0,162.73,34.74ZM143.9,32.18a7.17,7.17,0,0,1,6.65-4.55,6.9,6.9,0,0,1,6.72,4.55Z" fill="#fff"/><path d="M52.38,2.15a6.77,6.77,0,0,0-10.55,8.43L33.4,18.45a4,4,0,0,0-5.39,6,4.16,4.16,0,0,0,5.73.19A4.07,4.07,0,0,0,35,21.82a4.11,4.11,0,0,0-.32-1.74l8.58-8a6.77,6.77,0,0,0,9.14-9.93Z" fill="#fff"/><path d="M48.71,19.12a2.64,2.64,0,0,0-4.06,1.23c-1.61,4.5-6.17,17.8-6.17,17.8L35.65,29.9a2.77,2.77,0,0,0-3.42-1.78,2.72,2.72,0,0,0-1.71,3.59l4.92,12.37-.51,1.25a15.54,15.54,0,0,1-1,2.12,2.67,2.67,0,0,1-1,1,3.47,3.47,0,0,1-1.51.28,3.62,3.62,0,0,1-.75-.09l-.21,0a2.45,2.45,0,0,0-.38,0,2.29,2.29,0,0,0-.52,4.53l.29,0a15,15,0,0,0,2.39.17,9.21,9.21,0,0,0,4.17-.8,6.36,6.36,0,0,0,2.49-2.31,22.38,22.38,0,0,0,1.9-4.08s6.93-19,8.82-23.91A2.63,2.63,0,0,0,48.71,19.12Z" fill="#fff"/></g></g></svg>